#!OML:ASF F:\VICON\USERDATA\INSTALL\Justin_Nancy\Justin_Nancy.ASF
:FULLY-SPECIFIED
:DEGREES
292
root 1.02533 18.768 -5.42332 16.3624 -5.78862 -0.503338
lowerback 7.27384 2.40021 1.91397
upperback -4.23031 3.60819 2.17152
thorax -8.58292 1.72212 0.697679
lowerneck -20.7099 -4.4405 -8.51707
upperneck 17.0756 -5.09352 7.31862
head 9.19043 -2.14172 3.21142
rclavicle 1.17283e-014 2.38542e-014
rhumerus 41.9316 -1.46932 -13.573
rradius 84.3586
rwrist -0.608364
rhand -10.5011 19.543
rfingers 7.12502
rthumb 15.501 -9.85564
lclavicle 1.17283e-014 2.38542e-014
lhumerus 38.5273 15.1142 22.7544
lradius 89.6444
lwrist 15.3338
lhand -25.7262 16.9703
lfingers 7.12502
lthumb 0.810218 46.9485
rfemur 2.5675 6.9582 15.8702
rtibia 26.2846
rfoot 26.9541 0.102114
rtoes 8.33979
lfemur 3.73653 -4.66119 -20.2713
ltibia 21.4161
lfoot 32.7105 -3.34622
ltoes -2.14264
293
root 1.00983 19.0869 -5.04021 15.8245 -6.55619 -0.577257
lowerback 6.15689 2.52332 2.07166
upperback -4.72224 3.76108 2.09438
thorax -8.44684 1.78829 0.548326
lowerneck -19.0635 -4.21793 -8.83489
upperneck 18.4433 -4.84937 7.07483
head 9.3514 -2.11203 3.24301
rclavicle 4.77083e-015 9.54166e-015
rhumerus 43.517 0.68627 -15.812
rradius 81.5079
rwrist -0.604487
rhand -10.5016 19.3909
rfingers 7.12502
rthumb 15.5006 -10.0077
lclavicle 4.77083e-015 9.54166e-015
lhumerus 37.0961 13.3819 23.7175
lradius 87.9642
lwrist 13.7561
lhand -25.9709 17.4744
lfingers 7.12502
lthumb 0.57389 47.4534
rfemur 3.09668 7.95389 16.1743
rtibia 27.9523
rfoot 28.0422 -0.74428
rtoes 12.2615
lfemur 4.69524 -2.72563 -20.327
ltibia 21.895
lfoot 30.934 -3.61767
ltoes -5.31288
294
root 0.994021 19.4003 -4.6756 15.1696 -7.23628 -0.417059
lowerback 5.13027 2.62124 2.06781
upperback -4.96432 3.8569 2.0335
thorax -8.10297 1.83915 0.518342
lowerneck -17.6571 -3.98159 -9.29865
upperneck 19.393 -4.48899 6.75685
head 9.39855 -2.04443 3.28228
rclavicle 3.78685e-014 4.53229e-014
rhumerus 44.9508 2.60429 -18.3239
rradius 78.5875
rwrist -0.075474
rhand -10.4746 18.9776
rfingers 7.12502
rthumb 15.5266 -10.419
lclavicle 3.78685e-014 4.53229e-014
lhumerus 35.6585 11.9774 25.4279
lradius 86.5099
lwrist 12.6049
lhand -26.2324 17.7091
lfingers 7.12502
lthumb 0.321309 47.6886
rfemur 3.37818 8.11441 16.1618
rtibia 30.5671
rfoot 28.3048 -1.29259
rtoes 12.8404
lfemur 5.28746 -0.758735 -20.5117
ltibia 23.2663
lfoot 29.4148 -4.29949
ltoes -10.2559
295
root 0.981 19.7201 -4.32366 14.569 -7.58804 -0.0264251
lowerback 4.31532 2.61117 2.00243
upperback -5.14921 3.80575 1.93105
thorax -7.8224 1.81887 0.488824
lowerneck -14.6361 -4.01458 -10.5468
upperneck 19.4075 -4.53801 6.85024
head 8.89106 -2.20624 3.54042
rclavicle 3.70733e-014 4.45278e-014
rhumerus 46.0391 4.39593 -21.237
rradius 75.9974
rwrist 0.411964
rhand -9.6295 18.1567
rfingers 7.12502
rthumb 16.3404 -11.1749
lclavicle 3.70733e-014 4.45278e-014
lhumerus 34.0841 10.8135 27.7485
lradius 85.4171
lwrist 11.8073
lhand -26.4866 17.6912
lfingers 7.12502
lthumb 0.075754 47.6709
rfemur 3.09884 7.76638 15.9975
rtibia 34.0445
rfoot 29.2732 -1.91359
rtoes 14.7419
lfemur 5.35857 0.494161 -20.8995
ltibia 25.2384
lfoot 30.5101 -5.54427
ltoes -8.76584
296
root 0.958064 20.0529 -3.99064 14.0177 -7.60439 0.371248
lowerback 3.91103 2.52308 1.8097
upperback -5.33959 3.66356 1.92423
thorax -7.80293 1.76052 0.619197
lowerneck -16.6588 -3.49329 -9.76119
upperneck 21.2836 -3.57621 5.61027
head 9.78728 -1.81948 3.11378
rclavicle 3.12092e-014 2.8625e-014
rhumerus 46.6577 6.15804 -24.4484
rradius 73.7971
rwrist 1.10118
rhand -8.44271 17.324
rfingers 7.12502
rthumb 17.4828 -11.9098
lclavicle 3.12092e-014 2.8625e-014
lhumerus 32.289 9.79202 30.6145
lradius 84.6802
lwrist 11.1473
lhand -27.3822 18.1557
lfingers 7.12502
lthumb -0.789238 48.1339
rfemur 2.32443 7.48143 16.1472
rtibia 38.1193
rfoot 29.7024 -3.55958
rtoes 12.9623
lfemur 4.85482 1.11407 -21.2038
ltibia 27.7531
lfoot 35.0822 -6.6713
ltoes 3.57958
297
root 0.922431 20.3781 -3.68828 13.1953 -7.54075 0.88611
lowerback 3.95 2.43672 1.21258
upperback -5.42101 3.51063 1.99604
thorax -7.95384 1.72168 1.03948
lowerneck -16.1954 -3.22915 -9.96495
upperneck 21.9805 -3.08139 5.0571
head 9.90306 -1.68674 3.0315
rclavicle 4.84041e-014 2.46493e-014
rhumerus 46.7928 7.96042 -27.7705
rradius 71.7918
rwrist 2.29491
rhand -7.85279 16.6692
rfingers 7.12502
rthumb 18.0505 -12.5132
lclavicle 4.84041e-014 2.46493e-014
lhumerus 30.2763 8.81891 33.8942
lradius 84.2663
lwrist 10.8949
lhand -27.7856 19.514
lfingers 7.12502
lthumb -1.17885 49.4905
rfemur 1.50345 7.20495 16.343
rtibia 42.5574
rfoot 30.5514 -4.66556
rtoes 13.8101
lfemur 4.26105 1.47679 -21.5969
ltibia 30.7929
lfoot 35.8836 -8.15025
ltoes 2.32086
298
root 0.888006 20.6845 -3.41034 11.78 -7.35224 1.68861
lowerback 4.61562 2.33869 0.374276
upperback -5.28829 3.31804 1.93118
thorax -8.24179 1.67228 1.43461
lowerneck -15.2286 -2.8794 -9.98221
upperneck 21.7794 -2.63306 4.83863
head 9.61023 -1.51278 3.01776
rclavicle 4.47266e-015 -3.97569e-015
rhumerus 46.2636 9.73224 -31.316
rradius 69.7887
rwrist 3.85789
rhand -8.3608 16.5751
rfingers 7.12502
rthumb 17.5616 -12.6517
lclavicle 4.47266e-015 -3.97569e-015
lhumerus 28.1226 7.85583 37.1415
lradius 84.1157
lwrist 11.4302
lhand -27.3044 20.0947
lfingers 7.12502
lthumb -0.71405 50.0733
rfemur 1.08926 6.53236 16.2105
rtibia 47.2308
rfoot 31.2752 -4.24332
rtoes 17.3013
lfemur 3.92186 1.61754 -22.2805
ltibia 34.3207
lfoot 36.718 -9.74786
ltoes 2.86901
299
root 0.861719 20.9884 -3.13268 10.2041 -6.79866 2.36558
lowerback 5.67292 2.20158 -0.168191
upperback -4.94618 3.08273 1.81251
thorax -8.5076 1.58165 1.60662
lowerneck -15.0707 -2.6855 -9.70639
upperneck 21.7497 -2.37545 4.53911
head 9.54151 -1.40434 2.89957
rclavicle 3.77691e-014 1.98785e-014
rhumerus 45.2525 11.2747 -34.9011
rradius 67.7247
rwrist 5.5499
rhand -10.3906 17.132
rfingers 7.12502
rthumb 15.6075 -12.2583
lclavicle 3.77691e-014 1.98785e-014
lhumerus 25.8963 6.86934 40.009
lradius 84.1944
lwrist 13.0414
lhand -27.3725 19.567
lfingers 7.12502
lthumb -0.779847 49.5453
rfemur 0.726214 5.38844 16.1928
rtibia 51.9349
rfoot 31.6371 -3.2233
rtoes 20.6776
lfemur 3.42061 1.31458 -22.8166
ltibia 38.2884
lfoot 37.3128 -11.7411
ltoes 6.1547
300
root 0.845736 21.2887 -2.86012 8.88372 -6.00239 2.89292
lowerback 6.63703 1.98752 -0.480278
upperback -4.46102 2.75473 1.72314
thorax -8.54618 1.4322 1.70558
lowerneck -15.7583 -2.65639 -9.66781
upperneck 22.2873 -2.28466 4.55891
head 9.85292 -1.35945 2.91842
rclavicle 2.25621e-014 1.43125e-014
rhumerus 44.2465 12.6155 -38.3393
rradius 65.7309
rwrist 6.45382
rhand -12.2641 17.4804
rfingers 7.12502
rthumb 13.8025 -12.0417
lclavicle 2.25621e-014 1.43125e-014
lhumerus 23.9086 5.89676 42.918
lradius 84.0026
lwrist 14.5557
lhand -27.8711 18.9695
lfingers 7.12502
lthumb -1.26142 48.9456
rfemur -0.0496298 3.87311 16.2188
rtibia 56.51
rfoot 31.8543 -2.68316
rtoes 21.9018
lfemur 2.45425 0.763837 -23.2129
ltibia 42.5466
lfoot 38.8959 -13.3941
ltoes 12.5053
301
root 0.83922 21.5735 -2.58343 7.78776 -5.23276 3.06323
lowerback 7.33444 1.2796 -0.927503
upperback -4.82649 1.82421 2.45724
thorax -9.36553 1.03979 2.8595
lowerneck -12.4675 -1.83106 -11.0547
upperneck 21.9152 -1.22028 4.79852
head 9.03623 -0.977836 3.36094
rclavicle -1.799e-014 -7.95139e-015
rhumerus 43.1262 16.6628 -41.1934
rradius 64.2265
rwrist 6.09781
rhand -13.1534 17.3515
rfingers 7.12502
rthumb 12.9454 -12.227
lclavicle -1.799e-014 -7.95139e-015
lhumerus 19.0977 4.8334 45.903
lradius 83.6684
lwrist 14.8151
lhand -27.7175 18.9084
lfingers 7.12502
lthumb -1.11306 48.8852
rfemur -1.00841 2.2226 16.4116
rtibia 60.8099
rfoot 31.8167 -3.10483
rtoes 22.2279
lfemur 1.16013 0.372072 -23.2618
ltibia 46.9432
lfoot 38.3277 -14.8337
ltoes 7.21235
302
root 0.82883 21.8512 -2.28287 6.67267 -4.59191 3.03918
lowerback 7.65621 1.8485 -0.128533
upperback -3.03687 2.57216 1.55338
thorax -7.5723 1.30803 1.34259
lowerneck -17.7971 -3.04158 -9.37705
upperneck 23.645 -2.79484 4.84477
head 10.7724 -1.53561 2.91844
rclavicle -6.21202e-015 3.97569e-015
rhumerus 41.2169 14.3256 -44.6588
rradius 62.4911
rwrist 5.86793
rhand -14.346 17.6262
rfingers 7.12502
rthumb 11.7954 -12.0217
lclavicle -6.21202e-015 3.97569e-015
lhumerus 21.7727 3.20832 49.0931
lradius 81.9708
lwrist 13.8615
lhand -26.8853 18.7158
lfingers 7.12502
lthumb -0.309309 48.6953
rfemur -1.85462 0.573873 16.6764
rtibia 64.7375
rfoot 31.5466 -4.22565
rtoes 24.3412
lfemur -0.172617 0.167582 -23.0735
ltibia 51.3135
lfoot 38.4642 -15.838
ltoes 5.83506
